<svg t="1601260431876" class="icon" viewBox="0 0 1024 1024" version="1.1" xmlns="http://www.w3.org/2000/svg" p-id="6552" width="64" height="64"><path d="M353.989 418.5L665.81 251.518l23.983 44.786-311.822 166.981zM352.779 577.83l20.254-46.588L691.817 669.83l-20.254 46.589z" fill="#828282" p-id="6553"></path><path d="M772.4 367.8c-78.3 0-142.1-63.7-142.1-142S694.1 83.6 772.4 83.6s142.1 63.7 142.1 142.1-63.7 142.1-142.1 142.1z m0-233.4c-50.3 0-91.3 40.9-91.3 91.3 0 50.3 40.9 91.2 91.3 91.2 50.3 0 91.3-40.9 91.3-91.2 0-50.3-40.9-91.3-91.3-91.3zM784.9 869.5c-78.3 0-142.1-63.7-142.1-142.1s63.7-142.1 142.1-142.1S927 649.1 927 727.4s-63.7 142.1-142.1 142.1z m0-233.3c-50.3 0-91.3 40.9-91.3 91.3s40.9 91.3 91.3 91.3c50.3 0 91.3-40.9 91.3-91.3s-40.9-91.3-91.3-91.3zM269.1 658.6c-78.3 0-142.1-63.7-142.1-142s63.7-142.1 142.1-142.1 142.1 63.7 142.1 142.1-63.8 142-142.1 142z m0-233.3c-50.3 0-91.3 40.9-91.3 91.3 0 50.3 41 91.2 91.3 91.2s91.3-40.9 91.3-91.2c-0.1-50.4-41-91.3-91.3-91.3z" fill="#828282" p-id="6554"></path></svg>
