<?xml version="1.0" standalone="no"?><!DOCTYPE svg PUBLIC "-//W3C//DTD SVG 1.1//EN" "http://www.w3.org/Graphics/SVG/1.1/DTD/svg11.dtd"><svg t="1601457938724" class="icon" viewBox="0 0 1024 1024" version="1.1" xmlns="http://www.w3.org/2000/svg" p-id="6043" xmlns:xlink="http://www.w3.org/1999/xlink" width="64" height="64"><defs><style type="text/css"></style></defs><path d="M832 928H192c-52.929 0-96-43.071-96-95.998v-640C96 139.072 139.07 96 192 96h640c52.927 0 96 43.072 96 96v640c0 52.928-43.071 96-96 96zM192 160c-17.632 0-32 14.37-32 32.002v640C160 849.666 174.367 864 192 864h640c17.665 0 32-14.336 32-32v-640c0-17.631-14.337-32-32-32H192z" p-id="6044" fill="#cdcdcd"></path></svg>